# Blender v2.79 (sub 0) OBJ File: ''
# www.blender.org
mtllib ProtoButton.mtl
o Cylinder
v 0.000000 -0.100000 -1.000000
v 0.000000 0.100000 -1.000000
v 0.195090 -0.100000 -0.980785
v 0.195090 0.100000 -0.980785
v 0.382683 -0.100000 -0.923880
v 0.382683 0.100000 -0.923880
v 0.555570 -0.100000 -0.831470
v 0.555570 0.100000 -0.831470
v 0.707107 -0.100000 -0.707107
v 0.707107 0.100000 -0.707107
v 0.831470 -0.100000 -0.555570
v 0.831470 0.100000 -0.555570
v 0.923880 -0.100000 -0.382683
v 0.923880 0.100000 -0.382683
v 0.980785 -0.100000 -0.195090
v 0.980785 0.100000 -0.195090
v 1.000000 -0.100000 -0.000000
v 1.000000 0.100000 -0.000000
v 0.980785 -0.100000 0.195090
v 0.980785 0.100000 0.195090
v 0.923880 -0.100000 0.382683
v 0.923880 0.100000 0.382683
v 0.831470 -0.100000 0.555570
v 0.831470 0.100000 0.555570
v 0.707107 -0.100000 0.707107
v 0.707107 0.100000 0.707107
v 0.555570 -0.100000 0.831470
v 0.555570 0.100000 0.831470
v 0.382683 -0.100000 0.923880
v 0.382683 0.100000 0.923880
v 0.195090 -0.100000 0.980785
v 0.195090 0.100000 0.980785
v -0.000000 -0.100000 1.000000
v -0.000000 0.100000 1.000000
v -0.195091 -0.100000 0.980785
v -0.195091 0.100000 0.980785
v -0.382684 -0.100000 0.923879
v -0.382684 0.100000 0.923879
v -0.555571 -0.100000 0.831469
v -0.555571 0.100000 0.831469
v -0.707107 -0.100000 0.707106
v -0.707107 0.100000 0.707106
v -0.831470 -0.100000 0.555570
v -0.831470 0.100000 0.555570
v -0.923880 -0.100000 0.382683
v -0.923880 0.100000 0.382683
v -0.980785 -0.100000 0.195089
v -0.980785 0.100000 0.195089
v -1.000000 -0.100000 -0.000001
v -1.000000 0.100000 -0.000001
v -0.980785 -0.100000 -0.195091
v -0.980785 0.100000 -0.195091
v -0.923879 -0.100000 -0.382684
v -0.923879 0.100000 -0.382684
v -0.831469 -0.100000 -0.555571
v -0.831469 0.100000 -0.555571
v -0.707106 -0.100000 -0.707108
v -0.707106 0.100000 -0.707108
v -0.555569 -0.100000 -0.831470
v -0.555569 0.100000 -0.831470
v -0.382682 -0.100000 -0.923880
v -0.382682 0.100000 -0.923880
v -0.195089 -0.100000 -0.980786
v -0.195089 0.100000 -0.980786
vt 0.999816 0.531771
vt 0.498978 0.531771
vt 0.498978 0.580625
vt 0.999816 0.580625
vt 0.498978 0.627602
vt 0.999816 0.627602
vt 0.498978 0.670896
vt 0.999816 0.670896
vt 0.498978 0.708844
vt 0.999816 0.708844
vt 0.498978 0.670896
vt 0.999816 0.670896
vt 0.498978 0.627602
vt 0.999816 0.627602
vt 0.498978 0.580625
vt 0.999816 0.580625
vt 0.498978 0.531771
vt 0.999816 0.531771
vt 0.498978 0.482917
vt 0.999816 0.482917
vt 0.498978 0.435940
vt 0.999816 0.435940
vt 0.498978 0.392646
vt 0.999816 0.392646
vt 0.498978 0.354698
vt 0.999816 0.354698
vt 0.999816 0.354330
vt 0.498978 0.354330
vt 0.498978 0.316382
vt 0.999816 0.316382
vt 0.498978 0.273088
vt 0.999816 0.273088
vt 0.498978 0.226111
vt 0.999816 0.226111
vt 0.498978 0.177257
vt 0.999816 0.177257
vt 0.498978 0.128403
vt 0.999816 0.128403
vt 0.498978 0.081426
vt 0.999816 0.081426
vt 0.498978 0.038131
vt 0.999816 0.038131
vt 0.498978 0.000184
vt 0.999816 0.000184
vt 0.498978 0.038132
vt 0.999816 0.038132
vt 0.498978 0.081426
vt 0.999816 0.081426
vt 0.498978 0.128403
vt 0.999816 0.128403
vt 0.498978 0.177257
vt 0.999816 0.177257
vt 0.498978 0.226112
vt 0.999816 0.226112
vt 0.498978 0.273088
vt 0.999816 0.273088
vt 0.498978 0.316383
vt 0.999816 0.316383
vt 0.498978 0.354330
vt 0.999816 0.354330
vt 0.999816 0.354698
vt 0.498978 0.354698
vt 0.498978 0.392646
vt 0.999816 0.392646
vt 0.498978 0.435940
vt 0.999816 0.435940
vt 0.442974 0.589327
vt 0.470247 0.630145
vt 0.489033 0.675498
vt 0.498610 0.723646
vt 0.498610 0.772737
vt 0.489033 0.820884
vt 0.470247 0.866238
vt 0.442974 0.907055
vt 0.408261 0.941768
vt 0.367444 0.969041
vt 0.322090 0.987827
vt 0.273942 0.997405
vt 0.224852 0.997404
vt 0.176704 0.987827
vt 0.131350 0.969041
vt 0.090533 0.941768
vt 0.055820 0.907055
vt 0.028547 0.866238
vt 0.009761 0.820884
vt 0.000184 0.772736
vt 0.000184 0.723646
vt 0.009761 0.675498
vt 0.028547 0.630144
vt 0.055821 0.589327
vt 0.090533 0.554615
vt 0.131351 0.527341
vt 0.176705 0.508555
vt 0.224852 0.498978
vt 0.273943 0.498978
vt 0.322090 0.508555
vt 0.367444 0.527342
vt 0.408262 0.554615
vt 0.498978 0.482917
vt 0.999816 0.482917
vt 0.131351 0.028547
vt 0.090533 0.055820
vt 0.055821 0.090533
vt 0.028547 0.131350
vt 0.009761 0.176704
vt 0.000184 0.224852
vt 0.000184 0.273942
vt 0.009761 0.322090
vt 0.028547 0.367444
vt 0.055820 0.408261
vt 0.090533 0.442973
vt 0.131350 0.470247
vt 0.176704 0.489033
vt 0.224852 0.498610
vt 0.273942 0.498610
vt 0.322090 0.489033
vt 0.367444 0.470247
vt 0.408261 0.442974
vt 0.442974 0.408261
vt 0.470247 0.367444
vt 0.489033 0.322090
vt 0.498610 0.273943
vt 0.498610 0.224852
vt 0.489033 0.176704
vt 0.470247 0.131350
vt 0.442974 0.090533
vt 0.408261 0.055821
vt 0.367444 0.028547
vt 0.322090 0.009761
vt 0.273942 0.000184
vt 0.224852 0.000184
vt 0.176704 0.009761
vn 0.0980 0.0000 -0.9952
vn 0.2903 0.0000 -0.9569
vn 0.4714 0.0000 -0.8819
vn 0.6344 0.0000 -0.7730
vn 0.7730 0.0000 -0.6344
vn 0.8819 0.0000 -0.4714
vn 0.9569 0.0000 -0.2903
vn 0.9952 0.0000 -0.0980
vn 0.9952 0.0000 0.0980
vn 0.9569 0.0000 0.2903
vn 0.8819 0.0000 0.4714
vn 0.7730 0.0000 0.6344
vn 0.6344 0.0000 0.7730
vn 0.4714 0.0000 0.8819
vn 0.2903 0.0000 0.9569
vn 0.0980 0.0000 0.9952
vn -0.0980 0.0000 0.9952
vn -0.2903 0.0000 0.9569
vn -0.4714 0.0000 0.8819
vn -0.6344 0.0000 0.7730
vn -0.7730 0.0000 0.6344
vn -0.8819 0.0000 0.4714
vn -0.9569 0.0000 0.2903
vn -0.9952 0.0000 0.0980
vn -0.9952 0.0000 -0.0980
vn -0.9569 0.0000 -0.2903
vn -0.8819 0.0000 -0.4714
vn -0.7730 0.0000 -0.6344
vn -0.6344 0.0000 -0.7730
vn -0.4714 0.0000 -0.8819
vn 0.0000 1.0000 -0.0000
vn -0.2903 0.0000 -0.9569
vn -0.0980 0.0000 -0.9952
vn 0.0000 -1.0000 -0.0000
usemtl Material.001
s off
f 1/1/1 2/2/1 4/3/1 3/4/1
f 3/4/2 4/3/2 6/5/2 5/6/2
f 5/6/3 6/5/3 8/7/3 7/8/3
f 7/8/4 8/7/4 10/9/4 9/10/4
f 9/10/5 10/9/5 12/11/5 11/12/5
f 11/12/6 12/11/6 14/13/6 13/14/6
f 13/14/7 14/13/7 16/15/7 15/16/7
f 15/16/8 16/15/8 18/17/8 17/18/8
f 17/18/9 18/17/9 20/19/9 19/20/9
f 19/20/10 20/19/10 22/21/10 21/22/10
f 21/22/11 22/21/11 24/23/11 23/24/11
f 23/24/12 24/23/12 26/25/12 25/26/12
f 25/27/13 26/28/13 28/29/13 27/30/13
f 27/30/14 28/29/14 30/31/14 29/32/14
f 29/32/15 30/31/15 32/33/15 31/34/15
f 31/34/16 32/33/16 34/35/16 33/36/16
f 33/36/17 34/35/17 36/37/17 35/38/17
f 35/38/18 36/37/18 38/39/18 37/40/18
f 37/40/19 38/39/19 40/41/19 39/42/19
f 39/42/20 40/41/20 42/43/20 41/44/20
f 41/44/21 42/43/21 44/45/21 43/46/21
f 43/46/22 44/45/22 46/47/22 45/48/22
f 45/48/23 46/47/23 48/49/23 47/50/23
f 47/50/24 48/49/24 50/51/24 49/52/24
f 49/52/25 50/51/25 52/53/25 51/54/25
f 51/54/26 52/53/26 54/55/26 53/56/26
f 53/56/27 54/55/27 56/57/27 55/58/27
f 55/58/28 56/57/28 58/59/28 57/60/28
f 57/61/29 58/62/29 60/63/29 59/64/29
f 59/64/30 60/63/30 62/65/30 61/66/30
f 4/67/31 2/68/31 64/69/31 62/70/31 60/71/31 58/72/31 56/73/31 54/74/31 52/75/31 50/76/31 48/77/31 46/78/31 44/79/31 42/80/31 40/81/31 38/82/31 36/83/31 34/84/31 32/85/31 30/86/31 28/87/31 26/88/31 24/89/31 22/90/31 20/91/31 18/92/31 16/93/31 14/94/31 12/95/31 10/96/31 8/97/31 6/98/31
f 61/66/32 62/65/32 64/99/32 63/100/32
f 63/100/33 64/99/33 2/2/33 1/1/33
f 1/101/34 3/102/34 5/103/34 7/104/34 9/105/34 11/106/34 13/107/34 15/108/34 17/109/34 19/110/34 21/111/34 23/112/34 25/113/34 27/114/34 29/115/34 31/116/34 33/117/34 35/118/34 37/119/34 39/120/34 41/121/34 43/122/34 45/123/34 47/124/34 49/125/34 51/126/34 53/127/34 55/128/34 57/129/34 59/130/34 61/131/34 63/132/34
